<?xml version="1.0" encoding="utf-8"?>
<!-- Generator: Adobe Illustrator 24.2.0, SVG Export Plug-In . SVG Version: 6.00 Build 0)  -->
<svg version="1.1" xmlns="http://www.w3.org/2000/svg" xmlns:xlink="http://www.w3.org/1999/xlink" x="0px" y="0px"
	 viewBox="0 0 111.2 30.6" style="enable-background:new 0 0 111.2 30.6;" xml:space="preserve">
<style type="text/css">
	.st0{display:none;}
	.st1{display:inline;}
	.st2{fill:#FFFFFF;}
	.st3{font-family:'Arial-BoldMT';}
	.st4{font-size:24px;}
	.st5{fill:url(#Subtraction_1_1_);}
	.st6{fill:#003A36;}
</style>
<g id="Layer_1" class="st0">
	<g id="Group_2" transform="translate(-372.804 -44.291)" class="st1">
		<text transform="matrix(1 0 0 1 409 68)" class="st2 st3 st4">BASIC</text>
		
			<linearGradient id="Subtraction_1_1_" gradientUnits="userSpaceOnUse" x1="-127.3543" y1="564.954" x2="-126.5793" y2="564.229" gradientTransform="matrix(7.9035 4.5631 9.6265 -16.6736 -4048.4365 10050.7803)">
			<stop  offset="0" style="stop-color:#FE8464"/>
			<stop  offset="1" style="stop-color:#FE6E9A"/>
		</linearGradient>
		<path id="Subtraction_1" class="st5" d="M380.7,66.7L380.7,66.7c-2.1-1.2-3.6-3.3-4.2-5.7c-0.6-2.5-0.2-5.1,1.1-7.2
			c1.2-2.2,3.3-3.8,5.7-4.6c2.3-0.7,4.9-0.4,7,0.8L380.7,66.7L380.7,66.7z"/>
		<path id="Subtraction_2" class="st2" d="M383.9,68L383.9,68c6.5,3.8,14.9,1.5,18.7-5c1.8-3.1,2.3-6.9,1.4-10.4
			c-0.9-3.5-3.2-6.5-6.4-8.3L383.9,68z"/>
	</g>
</g>
<g id="Layer_2">
	<g>
		
			<image style="overflow:visible;" width="4501" height="3016" xlink:href="38F6E26C.png"  transform="matrix(1.000230e-02 0 0 1.000230e-02 8.598 0.1995)">
		</image>
		<g>
			<path class="st6" d="M51.6,22.6l1.1-0.4l3.7-9h0.4l3.8,9.2l0.7,0.2v0.2h-1.6c-0.5,0-0.9-0.1-1.1-0.3c-0.3-0.2-0.5-0.5-0.7-0.8
				l-0.7-1.6H54l-0.9,2.2l1,0.4v0.2h-2.5V22.6z M54.1,19.7h3l-1.5-3.6L54.1,19.7z"/>
			<path class="st6" d="M61.6,22.6l0.8-0.2v-8.6l-0.8-0.2v-0.2h1.8c0.8,0,1.2,0.4,1.2,1.2v7.8l0.8,0.2v0.2h-3.8V22.6z"/>
			<path class="st6" d="M66.2,22.6l0.8-0.2v-8.6l-0.8-0.2v-0.2H68c0.8,0,1.2,0.4,1.2,1.2v7.8l0.8,0.2v0.2h-3.8V22.6z"/>
			<path class="st6" d="M71.6,22.5c-0.4-0.3-0.6-0.8-0.6-1.3c0-0.4,0.1-0.7,0.2-1c0.1-0.2,0.1-0.3,0.2-0.4c0.4-0.1,0.8-0.2,1.2-0.2
				c1-0.2,1.8-0.3,2.6-0.3v-0.4c0-1-0.1-1.7-0.4-2.1c-0.2-0.4-0.6-0.6-1.1-0.6c-0.2,0-0.4,0-0.5,0.1L73,16.3v2l-0.2,0
				c-0.1,0-0.3,0-0.4,0c-0.3,0-0.6-0.1-0.7-0.3c-0.2-0.2-0.3-0.4-0.3-0.7c0-0.4,0.2-0.8,0.6-1.1c0.4-0.3,1-0.4,1.9-0.4
				c0.7,0,1.3,0.1,1.8,0.4c0.5,0.2,0.9,0.6,1.2,1c0.3,0.4,0.4,0.9,0.4,1.5v3.6l0.8,0.2v0.2h-1.2c-0.5,0-1-0.2-1.3-0.5
				c-0.1-0.1-0.2-0.3-0.3-0.5c-0.1,0.2-0.3,0.4-0.4,0.6C74.5,22.8,74,23,73.4,23C72.6,23,72,22.9,71.6,22.5z M74.9,22
				c0.1-0.1,0.2-0.3,0.3-0.5v-2c-0.4,0-0.8,0-1.2,0.1c-0.3,0-0.5,0.1-0.6,0.1c0,0.1-0.1,0.2-0.1,0.4c-0.1,0.3-0.1,0.7-0.1,1
				c0,0.5,0.1,0.9,0.2,1.1c0.2,0.2,0.3,0.4,0.6,0.4C74.3,22.6,74.6,22.4,74.9,22z"/>
			<path class="st6" d="M80.6,22.7c-0.2-0.1-0.4-0.2-0.5-0.4c-0.1,0.2-0.3,0.4-0.5,0.5c-0.1,0.1-0.2,0.1-0.3,0.1H79v-2.3h0.5
				c0.1,0.4,0.3,0.7,0.5,1.1c0.5,0.7,1.1,1,1.8,1c0.4,0,0.7-0.1,0.9-0.3c0.2-0.2,0.3-0.5,0.3-0.8c0-0.3-0.1-0.5-0.4-0.7
				c-0.3-0.2-0.7-0.5-1.2-0.7c-0.5-0.2-0.9-0.5-1.2-0.7c-0.3-0.2-0.6-0.4-0.8-0.7c-0.2-0.3-0.3-0.6-0.3-1c0-0.5,0.2-1,0.7-1.3
				s1.2-0.5,2.1-0.5c0.5,0,0.9,0.1,1.3,0.4c0.2,0.1,0.4,0.2,0.5,0.4c0.1-0.2,0.3-0.3,0.5-0.5c0.2-0.1,0.2-0.1,0.3-0.1h0.3v2.3h-0.5
				c-0.1-0.4-0.3-0.7-0.5-1c-0.5-0.7-1-1.1-1.6-1.1c-0.2,0-0.4,0.1-0.6,0.3c-0.2,0.2-0.3,0.4-0.3,0.7c0,0.3,0.1,0.6,0.4,0.9
				c0.3,0.2,0.7,0.5,1.3,0.8c0.5,0.2,0.9,0.5,1.1,0.6c0.3,0.2,0.5,0.4,0.7,0.7c0.2,0.3,0.3,0.6,0.3,0.9c0,1.3-1,2-3.1,2
				C81.6,23,81.1,22.9,80.6,22.7z"/>
			<path class="st6" d="M86.3,22.6l0.8-0.2v-5.9l-0.8-0.2v-0.2h1.2c0.5,0,0.9,0.2,1.3,0.5c0.1,0.1,0.2,0.3,0.3,0.5
				c0.1-0.2,0.3-0.4,0.4-0.6c0.4-0.4,0.9-0.6,1.5-0.6c0.5,0,1,0.1,1.4,0.3c0.4,0.2,0.7,0.5,0.9,0.8c0.2,0.3,0.3,0.7,0.3,1.1v4.3
				l0.8,0.2v0.2h-1.8c-0.8,0-1.2-0.4-1.2-1.2v-3.5c0-0.6-0.1-1-0.3-1.3c-0.2-0.3-0.4-0.5-0.7-0.5c-0.3,0-0.6,0.2-0.9,0.5
				c-0.1,0.2-0.2,0.3-0.3,0.5v5l0.8,0.2v0.2h-3.8V22.6z"/>
			<path class="st6" d="M96,22.5c-0.4-0.3-0.6-0.8-0.6-1.3c0-0.4,0.1-0.7,0.2-1c0.1-0.2,0.1-0.3,0.2-0.4c0.4-0.1,0.8-0.2,1.2-0.2
				c1-0.2,1.8-0.3,2.6-0.3v-0.4c0-1-0.1-1.7-0.4-2.1c-0.2-0.4-0.6-0.6-1.1-0.6c-0.2,0-0.4,0-0.5,0.1l-0.2,0.1v2l-0.2,0
				c-0.1,0-0.3,0-0.4,0c-0.3,0-0.6-0.1-0.7-0.3c-0.2-0.2-0.3-0.4-0.3-0.7c0-0.4,0.2-0.8,0.6-1.1c0.4-0.3,1-0.4,1.9-0.4
				c0.7,0,1.3,0.1,1.8,0.4c0.5,0.2,0.9,0.6,1.2,1c0.3,0.4,0.4,0.9,0.4,1.5v3.6l0.8,0.2v0.2h-1.2c-0.5,0-1-0.2-1.3-0.5
				c-0.1-0.1-0.2-0.3-0.3-0.5c-0.1,0.2-0.3,0.4-0.4,0.6C99,22.8,98.5,23,97.9,23C97.1,23,96.5,22.9,96,22.5z M99.3,22
				c0.1-0.1,0.2-0.3,0.3-0.5v-2c-0.4,0-0.8,0-1.2,0.1c-0.3,0-0.5,0.1-0.6,0.1c0,0.1-0.1,0.2-0.1,0.4c-0.1,0.3-0.1,0.7-0.1,1
				c0,0.5,0.1,0.9,0.2,1.1c0.2,0.2,0.3,0.4,0.6,0.4C98.7,22.6,99,22.4,99.3,22z"/>
		</g>
	</g>
</g>
</svg>
